#!OML:ASF X:\für Bonn\!DataBase\2005_08_11_Bastian_Final\c3d\Bastian.ASF
:FULLY-SPECIFIED
:DEGREES
62
root -20.8808 16.1546 -22.1157 171.885 122.284 -555.084
lowerback 11.2144 -6.17237 8.33005
upperback 7.33292 -7.06865 5.4628
thorax 1.19525 -3.24392 1.82095
lowerneck -11.8675 -0.781836 -6.10296
upperneck -5.50524 -0.116038 6.66829
head 0.31126 0.17882 3.24156
rclavicle 5.04913e-014 -5.08889e-014
rhumerus -58.8114 1.25043 -76.1509
rradius 52.7571
rwrist 3.48124
rhand -14.2364 10.1528
rfingers 7.12502
rthumb 11.9012 -19.489
lclavicle 5.04913e-014 -5.08889e-014
lhumerus -34.319 -35.0785 106.281
lradius 99.5552
lwrist 15.0474
lhand -6.55008 -21.3898
lfingers 7.12502
lthumb 19.3035 7.67215
rfemur -43.7107 -4.87757 24.8827
rtibia 60.693
rfoot -25.6422 -1.39406
rtoes -23.4354
lfemur 22.1384 -0.724732 -7.51881
ltibia 24.1233
lfoot -17.9113 13.7642
ltoes -46.9414
63
root -20.7404 16.1374 -21.9631 171.438 122.42 -555.522
lowerback 11.5581 -6.11075 8.88364
upperback 7.36883 -6.87659 5.56965
thorax 1.01181 -3.12978 1.64852
lowerneck -12.1998 -0.75157 -6.26381
upperneck -5.55018 -0.0341313 6.44605
head 0.346697 0.227097 3.20107
rclavicle 2.44505e-014 7.95139e-016
rhumerus -57.8729 1.40192 -76.4626
rradius 53.5715
rwrist 3.68023
rhand -14.5318 11.0352
rfingers 7.12502
rthumb 11.6163 -18.6229
lclavicle 2.44505e-014 7.95139e-016
lhumerus -34.6473 -34.7504 106.453
lradius 98.2256
lwrist 14.9566
lhand -6.81206 -20.7628
lfingers 7.12502
lthumb 19.0516 8.3241
rfemur -43.0543 -4.74356 25.3209
rtibia 61.0415
rfoot -25.7416 -1.30077
rtoes -23.5523
lfemur 19.964 -1.10567 -7.28908
ltibia 29.4069
lfoot -16.0319 14.1361
ltoes -46.2573
64
root -20.6015 16.1206 -21.8103 170.97 122.605 -555.939
lowerback 11.9501 -6.04175 9.40893
upperback 7.43469 -6.66748 5.67872
thorax 0.84208 -3.00745 1.49293
lowerneck -12.5794 -0.715761 -6.4745
upperneck -5.57405 0.0654942 6.22963
head 0.396082 0.285775 3.17385
rclavicle -2.92213e-014 1.59028e-014
rhumerus -56.8497 1.70313 -76.8066
rradius 54.4922
rwrist 3.82354
rhand -14.7878 11.9932
rfingers 7.12502
rthumb 11.3694 -17.6786
lclavicle -2.92213e-014 1.59028e-014
lhumerus -34.8858 -34.2815 106.551
lradius 96.7514
lwrist 14.8124
lhand -6.98273 -19.8183
lfingers 7.12502
lthumb 18.8874 9.28475
rfemur -42.3268 -4.56274 25.757
rtibia 61.3377
rfoot -25.8197 -1.24613
rtoes -23.6267
lfemur 17.8074 -1.62307 -7.19302
ltibia 34.6549
lfoot -13.6272 14.7118
ltoes -44.5279
65
root -20.462 16.1119 -21.6544 170.511 122.81 -556.345
lowerback 12.3165 -5.94716 9.87903
upperback 7.49671 -6.43081 5.78473
thorax 0.69181 -2.87369 1.3553
lowerneck -12.7654 -0.656847 -6.60653
upperneck -5.70707 0.179805 5.98813
head 0.375035 0.347413 3.12115
rclavicle -2.42517e-014 -3.33958e-014
rhumerus -55.7451 2.07646 -77.2122
rradius 55.4286
rwrist 4.03763
rhand -15.0622 12.9045
rfingers 7.12502
rthumb 11.1048 -16.7817
lclavicle -2.42517e-014 -3.33958e-014
lhumerus -35.1027 -33.8068 106.558
lradius 95.136
lwrist 14.6325
lhand -7.20612 -18.7536
lfingers 7.12502
lthumb 18.6726 10.3702
rfemur -41.5168 -4.32559 26.1995
rtibia 61.5399
rfoot -25.9124 -1.34297
rtoes -23.8485
lfemur 15.5388 -2.03215 -7.06442
ltibia 39.9359
lfoot -10.9057 15.3669
ltoes -41.4277
66
root -20.3232 16.1118 -21.497 170.118 123.032 -556.651
lowerback 12.7211 -5.82524 10.2338
upperback 7.55481 -6.1613 5.89461
thorax 0.532572 -2.72866 1.27989
lowerneck -12.8598 -0.597146 -6.7336
upperneck -5.85821 0.288748 5.71187
head 0.332628 0.404541 3.05433
rclavicle 2.62396e-014 1.59028e-015
rhumerus -54.5981 2.57874 -77.6784
rradius 56.4679
rwrist 4.3081
rhand -15.251 13.5505
rfingers 7.12502
rthumb 10.9227 -16.1454
lclavicle 2.62396e-014 1.59028e-015
lhumerus -35.3097 -33.2385 106.566
lradius 93.3432
lwrist 14.3701
lhand -7.37507 -17.6322
lfingers 7.12502
lthumb 18.5101 11.5072
rfemur -40.6165 -4.09575 26.6073
rtibia 61.6439
rfoot -25.9679 -1.5124
rtoes -24.1405
lfemur 13.1337 -2.1234 -6.84812
ltibia 45.229
lfoot -7.97423 15.7687
ltoes -38.9098
67
root -20.186 16.1129 -21.3401 169.698 123.257 -556.993
lowerback 13.1217 -5.70211 10.6213
upperback 7.60508 -5.88364 5.99172
thorax 0.366301 -2.57918 1.16979
lowerneck -12.9021 -0.540472 -6.87447
upperneck -6.01912 0.392394 5.4755
head 0.278953 0.459489 3.00322
rclavicle -5.36719e-014 5.32743e-014
rhumerus -53.408 3.16294 -78.2421
rradius 57.6224
rwrist 4.62053
rhand -15.3368 13.8942
rfingers 7.12502
rthumb 10.8399 -15.806
lclavicle -5.36719e-014 5.32743e-014
lhumerus -35.4391 -32.6619 106.464
lradius 91.3317
lwrist 14.0578
lhand -7.54477 -16.6158
lfingers 7.12502
lthumb 18.3468 12.539
rfemur -39.6873 -3.87812 27.0447
rtibia 61.679
rfoot -26.0032 -1.68099
rtoes -24.4129
lfemur 10.5617 -1.98534 -6.48019
ltibia 50.4995
lfoot -5.04469 15.4795
ltoes -37.239
68
root -20.05 16.1108 -21.1826 169.226 123.539 -557.358
lowerback 13.5306 -5.54697 10.987
upperback 7.68385 -5.56361 6.10542
thorax 0.23571 -2.40789 1.07896
lowerneck -12.8883 -0.482336 -7.00997
upperneck -6.23938 0.494578 5.19159
head 0.196358 0.513504 2.93368
rclavicle -6.48038e-014 -3.89618e-014
rhumerus -52.0945 3.95983 -78.8236
rradius 58.8161
rwrist 4.93575
rhand -15.3377 13.9908
rfingers 7.12502
rthumb 10.839 -15.7095
lclavicle -6.48038e-014 -3.89618e-014
lhumerus -35.4585 -32.0604 106.305
lradius 89.0727
lwrist 13.6839
lhand -7.7046 -15.7402
lfingers 7.12502
lthumb 18.193 13.4289
rfemur -38.7074 -3.62546 27.5111
rtibia 61.6824
rfoot -26.0501 -1.83151
rtoes -24.6203
lfemur 7.97957 -1.78182 -6.07484
ltibia 55.6367
lfoot -2.59385 14.532
ltoes -34.5142
69
root -19.9145 16.1021 -21.0276 168.825 123.793 -557.641
lowerback 13.8924 -5.38764 11.3251
upperback 7.75251 -5.24822 6.17992
thorax 0.12033 -2.23984 0.955535
lowerneck -12.8307 -0.427844 -7.1229
upperneck -6.41504 0.583025 4.93529
head 0.122253 0.559792 2.86874
rclavicle -3.97569e-016 -1.35174e-014
rhumerus -50.7635 4.87546 -79.5012
rradius 60.103
rwrist 5.31306
rhand -15.2068 13.7891
rfingers 7.12502
rthumb 10.9653 -15.9045
lclavicle -3.97569e-016 -1.35174e-014
lhumerus -35.5505 -31.4689 106.05
lradius 86.7426
lwrist 13.357
lhand -7.89354 -14.9908
lfingers 7.12502
lthumb 18.0113 14.1952
rfemur -37.7346 -3.42749 27.9239
rtibia 61.6805
rfoot -26.1605 -1.95347
rtoes -24.6008
lfemur 5.36394 -1.53682 -5.71027
ltibia 60.5562
lfoot -0.982642 13.317
ltoes -31.6579
70
root -19.7762 16.0893 -20.8743 168.4 124.075 -557.953
lowerback 14.1632 -5.20481 11.6858
upperback 7.84523 -4.91615 6.25048
thorax 0.0822431 -2.05967 0.802527
lowerneck -12.6532 -0.356748 -7.19932
upperneck -6.67263 0.681326 4.66631
head 0.000919975 0.610442 2.79133
rclavicle 1.83677e-013 -9.85972e-014
rhumerus -49.3737 5.99473 -80.2076
rradius 61.4229
rwrist 5.70354
rhand -14.9862 13.429
rfingers 7.12502
rthumb 11.178 -16.2532
lclavicle 1.83677e-013 -9.85972e-014
lhumerus -35.6533 -30.9219 105.732
lradius 84.3631
lwrist 12.9859
lhand -8.14478 -14.3115
lfingers 7.12502
lthumb 17.7695 14.8967
rfemur -36.7378 -3.25129 28.3469
rtibia 61.6593
rfoot -26.3483 -1.9544
rtoes -24.4614
lfemur 2.7864 -1.26035 -5.35667
ltibia 65.1984
lfoot -0.0252365 11.8876
ltoes -30.6385
71
root -19.633 16.0779 -20.7208 168.002 124.346 -558.222
lowerback 14.3908 -5.01825 12.0013
upperback 7.935 -4.59146 6.32786
thorax 0.070393 -1.88417 0.677265
lowerneck -12.4638 -0.283372 -7.29084
upperneck -6.87828 0.780023 4.4039
head -0.104949 0.66139 2.71942
rclavicle 2.78299e-015 -6.67916e-014
rhumerus -47.9505 7.40149 -80.8929
rradius 62.7366
rwrist 6.08429
rhand -14.7805 13.0874
rfingers 7.12502
rthumb 11.3765 -16.584
lclavicle 2.78299e-015 -6.67916e-014
lhumerus -35.7443 -30.3118 105.427
lradius 81.8666
lwrist 12.5647
lhand -8.51177 -13.6435
lfingers 7.12502
lthumb 17.4164 15.5963
rfemur -35.6926 -3.14714 28.7343
rtibia 61.6028
rfoot -26.5739 -1.93745
rtoes -24.0938
lfemur 0.243272 -0.963113 -5.05872
ltibia 69.5648
lfoot 0.343459 9.86571
ltoes -31.9179
72
root -19.4872 16.0679 -20.5669 167.627 124.606 -558.447
lowerback 14.6194 -4.82644 12.3162
upperback 8.02213 -4.26032 6.36701
thorax 0.0557413 -1.70531 0.509406
lowerneck -12.3831 -0.18737 -7.29076
upperneck -6.98668 0.901316 4.09727
head -0.161671 0.721648 2.61774
rclavicle -1.47101e-014 -4.53229e-014
rhumerus -46.4886 8.88405 -81.5619
rradius 64.0798
rwrist 6.59504
rhand -14.589 12.755
rfingers 7.12502
rthumb 11.5611 -16.9062
lclavicle -1.47101e-014 -4.53229e-014
lhumerus -35.7769 -29.7459 105.105
lradius 79.2169
lwrist 12.0514
lhand -9.01854 -12.9988
lfingers 7.12502
lthumb 16.9286 16.2834
rfemur -34.5819 -3.08316 29.0795
rtibia 61.4977
rfoot -26.8454 -1.80709
rtoes -23.4609
lfemur -2.29438 -0.71899 -4.81894
ltibia 73.6582
lfoot 0.158306 7.48873
ltoes -32.4478
73
root -19.3413 16.0587 -20.4125 167.31 124.899 -558.609
lowerback 14.8595 -4.60519 12.554
upperback 8.10835 -3.89825 6.41378
thorax 0.0441402 -1.51398 0.385011
lowerneck -12.4166 -0.0724812 -7.21237
upperneck -6.98017 1.04154 3.68954
head -0.16227 0.7882 2.46994
rclavicle 8.15017e-014 -3.81667e-014
rhumerus -45.007 10.5314 -82.1485
rradius 65.4714
rwrist 7.04763
rhand -14.6028 12.5527
rfingers 7.12502
rthumb 11.5479 -17.1091
lclavicle 8.15017e-014 -3.81667e-014
lhumerus -35.7097 -29.1164 104.832
lradius 76.4406
lwrist 11.479
lhand -9.65726 -12.3042
lfingers 7.12502
lthumb 16.3137 17.0296
rfemur -33.4406 -3.00069 29.3926
rtibia 61.3468
rfoot -27.1605 -1.65925
rtoes -22.4702
lfemur -4.84265 -0.398542 -4.59684
ltibia 77.471
lfoot -0.260356 5.08497
ltoes -31.6736
